<?xml version="1.0" encoding="utf-8"?>
<!-- Generator: Adobe Illustrator 14.0.0, SVG Export Plug-In . SVG Version: 6.00 Build 43363)  -->
<!DOCTYPE svg PUBLIC "-//W3C//DTD SVG 1.1//EN" "http://www.w3.org/Graphics/SVG/1.1/DTD/svg11.dtd">
<svg version="1.1" id="Layer_1" xmlns="http://www.w3.org/2000/svg" xmlns:xlink="http://www.w3.org/1999/xlink" x="0px" y="0px"
	 width="596.842px" height="598.505px" viewBox="136.071 10.922 596.842 598.505"
	 enable-background="new 136.071 10.922 596.842 598.505" xml:space="preserve">
<rect x="136.071" y="10.922" fill="#B1E5FC" stroke="#FFFFFF" width="596.842" height="598.505"/>
<g>
	<path fill="none" stroke="#B1E5FC" stroke-width="4" d="M211.98,201.736l-1.646-28.374c-0.189-3.278,2.341-5.961,5.627-5.961
		h18.909c3.284,0,5.623,2.665,5.197,5.921l-3.705,28.414"/>
</g>
<g>
	<path fill="none" stroke="#B1E5FC" stroke-width="4" d="M240.84,172.253h7.781c3.284,0,5.454,2.637,4.822,5.859l-4.013,20.451"/>
</g>
<g>
	<path fill="none" stroke="#B1E5FC" stroke-width="4" d="M208.449,172.253h-7.782c-3.284,0-5.38,2.622-4.659,5.825l4.241,18.821"/>
</g>
<path fill="#D2F5FF" stroke="#B1E5FC" stroke-width="10" d="M435.334,472.912c12.125-1.01,68.693,95.962,74.751,96.981
	c6.067,1.01,137.753,0.842,146.146-1.182c4.879-1.181,5.553-10.441,5.553-19.53c0-9.094-17.338-64.65-40.576-100.517
	c-14.003-21.614-44.728-80.586-48.426-90.199c-3.095-8.039-10.08-12.782,1.066-19.2c5.392-3.111,27.127,1.158,64.527-5.764
	c12.082-2.23,40.406-7.066,41.422-44.443c1.008-37.378-46.021-62.277-73.744-75.257c-30.731-14.384-86.087-25.119-89.904-35.362
	c-2.459-6.583-2.528-7.065-3.033-11.609c-0.563-5.021,5.052-22.229-14.145-54.553c-19.189-32.322-63.641-34.684-63.641-34.684
	s-44.442,2.362-63.641,34.684c-19.193,32.325-13.583,49.532-14.142,54.553c-0.503,4.541-0.572,5.027-3.03,11.609
	c-3.818,10.243-59.172,20.978-89.907,35.362c-27.721,12.983-74.749,37.879-73.741,75.257c1.009,37.374,29.337,42.213,41.415,44.443
	c37.405,6.922,59.138,2.652,64.535,5.764c11.136,6.418,4.157,11.161,1.066,19.2c-3.698,9.613-34.424,68.585-48.424,90.199
	c-23.236,35.866-40.578,91.423-40.578,100.517c0,9.089,0.673,18.35,5.558,19.53c8.391,2.023,140.076,2.191,146.136,1.182
	C366.644,568.874,423.214,473.92,435.334,472.912z"/>
</svg>
