<svg xmlns="http://www.w3.org/2000/svg" viewBox="34.49 10.18 400.81 401.93">
  <rect x="34.989" y="10.677" fill="#B1E5FC" stroke="#FFFFFF" width="399.814" height="400.928" style=""/>
  <g>
    <path fill="none" stroke="#B1E5FC" stroke-width="4" d="M85.839,138.5l-1.102-19.007c-0.127-2.196,1.568-3.993,3.769-3.993h12.667 c2.2,0,3.767,1.785,3.482,3.966l-2.482,19.034"/>
  </g>
  <g>
    <path fill="none" stroke="#B1E5FC" stroke-width="4" d="M105.172,118.75h5.213c2.2,0,3.653,1.766,3.23,3.925l-2.688,13.7"/>
  </g>
  <g>
    <path fill="none" stroke="#B1E5FC" stroke-width="4" d="M83.474,118.75h-5.213c-2.2,0-3.604,1.756-3.121,3.902l2.841,12.608"/>
  </g>
  <path fill="#D2F5FF" d="M307.364,251.643c4.923,0.41,27.903,38.981,30.366,39.391c2.46,0.411,55.954,0.346,59.36-0.477 c1.983-0.479,2.257-4.24,2.257-7.933c0-3.695-7.043-26.265-16.481-40.83c-5.688-8.78-18.168-32.736-19.672-36.642 c-1.254-3.266-4.092-5.194,0.434-7.8c2.193-1.262,11.021,0.47,26.216-2.339c4.907-0.907,16.412-2.873,16.823-18.055 c0.409-15.184-18.694-25.298-29.954-30.572c-12.483-5.843-34.971-10.203-36.522-14.361c-0.999-2.673-1.026-2.873-1.23-4.719 c-0.226-2.039,2.051-9.027-5.743-22.158c-7.799-13.131-25.853-14.09-25.853-14.09s-18.056,0.959-25.852,14.09 c-7.797,13.131-5.519,20.119-5.745,22.158c-0.207,1.846-0.233,2.046-1.231,4.719c-1.552,4.158-24.039,8.519-36.521,14.361 c-11.26,5.274-30.365,15.389-29.955,30.572c0.41,15.182,11.917,17.147,16.824,18.055c15.194,2.809,24.021,1.077,26.213,2.339 c4.527,2.605,1.69,4.534,0.434,7.8c-1.503,3.905-13.983,27.861-19.671,36.642c-9.438,14.565-16.482,37.135-16.482,40.83 c0,3.692,0.273,7.453,2.257,7.933c3.408,0.822,56.901,0.888,59.363,0.477C279.46,290.624,302.439,252.053,307.364,251.643"/>
  <path fill="#D2F5FF" d="M163.561,251.642c4.925,0.41,27.903,38.981,30.364,39.391c2.462,0.411,55.956,0.346,59.363-0.477 c1.984-0.479,2.258-4.242,2.258-7.935c0-3.693-7.045-26.263-16.483-40.828c-5.688-8.78-18.168-32.736-19.671-36.642 c-1.256-3.266-4.092-5.194,0.434-7.8c2.191-1.262,11.018,0.47,26.213-2.339c4.908-0.907,16.414-2.873,16.825-18.055 c0.41-15.184-18.695-25.298-29.956-30.572c-12.483-5.843-34.968-10.203-36.521-14.361c-0.997-2.673-1.024-2.873-1.23-4.719 c-0.227-2.039,2.052-9.027-5.745-22.158c-7.796-13.131-25.851-14.088-25.851-14.088s-18.056,0.957-25.853,14.088 c-7.796,13.131-5.518,20.119-5.745,22.158c-0.205,1.846-0.232,2.046-1.23,4.719c-1.551,4.158-24.038,8.518-36.521,14.361 c-11.261,5.274-30.366,15.389-29.955,30.572c0.41,15.182,11.917,17.147,16.824,18.055c15.195,2.809,24.022,1.077,26.213,2.339 c4.528,2.605,1.69,4.534,0.434,7.8c-1.503,3.905-13.983,27.861-19.671,36.642c-9.438,14.565-16.481,37.135-16.481,40.828 c0,3.692,0.272,7.455,2.256,7.935c3.408,0.822,56.901,0.888,59.363,0.477C135.658,290.623,158.637,252.052,163.561,251.642"/>
  <path fill="#D2F5FF" stroke="#B1E5FC" stroke-width="10" d="M235.461,289.404c5.617-0.468,31.826,44.46,34.632,44.932 c2.811,0.468,63.822,0.39,67.711-0.547c2.26-0.547,2.572-4.838,2.572-9.049c0-4.213-8.033-29.953-18.799-46.57 c-6.488-10.014-20.723-37.336-22.436-41.79c-1.434-3.725-4.67-5.922,0.494-8.895c2.498-1.442,12.568,0.536,29.896-2.671 c5.598-1.033,18.721-3.274,19.191-20.591c0.467-17.317-21.322-28.853-34.166-34.867c-14.238-6.664-39.885-11.638-41.654-16.383 c-1.139-3.05-1.171-3.274-1.405-5.379c-0.26-2.326,2.341-10.299-6.553-25.275c-8.891-14.975-29.485-16.069-29.485-16.069 s-20.591,1.094-29.486,16.069c-8.892,14.976-6.293,22.949-6.552,25.275c-0.233,2.104-0.265,2.329-1.404,5.379 c-1.769,4.745-27.415,9.719-41.654,16.383c-12.844,6.015-34.632,17.55-34.165,34.867c0.468,17.316,13.592,19.558,19.188,20.591 c17.33,3.207,27.399,1.229,29.899,2.671c5.16,2.973,1.926,5.17,0.494,8.895c-1.713,4.454-15.949,31.776-22.435,41.79 c-10.765,16.617-18.8,42.357-18.8,46.57c0,4.211,0.312,8.502,2.575,9.049c3.888,0.937,64.898,1.015,67.706,0.547 C203.636,333.864,229.845,289.871,235.461,289.404z"/>
</svg>