<?xml version="1.0" encoding="utf-8"?>
<!-- Generator: Adobe Illustrator 14.0.0, SVG Export Plug-In  -->
<!DOCTYPE svg PUBLIC "-//W3C//DTD SVG 1.1//EN" "http://www.w3.org/Graphics/SVG/1.1/DTD/svg11.dtd" [
	<!ENTITY ns_flows "http://ns.adobe.com/Flows/1.0/">
]>
<svg version="1.1"
	 xmlns="http://www.w3.org/2000/svg" xmlns:xlink="http://www.w3.org/1999/xlink" xmlns:a="http://ns.adobe.com/AdobeSVGViewerExtensions/3.0/"
	 x="0px" y="0px" width="300px" height="300px" viewBox="3.152 3.818 300 300" enable-background="new 3.152 3.818 300 300"
	 xml:space="preserve">
<defs>
</defs>
<rect x="0.5" y="0.5" fill="#FFC3AD" stroke="#FFFFFF" width="306.463" height="307.318"/>
<path fill="#FFE1D6" stroke="#FFE1D6" stroke-width="3" d="M219.314,181.72c3.331,0.276,18.881,26.378,20.548,26.654
	c1.665,0.279,37.864,0.234,40.169-0.321c1.342-0.324,1.527-2.87,1.527-5.369c0-2.5-4.766-17.773-11.152-27.629
	c-3.85-5.941-12.295-22.153-13.313-24.796c-0.848-2.21-2.769-3.515,0.294-5.278c1.484-0.854,7.459,0.318,17.741-1.583
	c3.32-0.613,11.105-1.944,11.383-12.218c0.277-10.274-12.65-17.119-20.27-20.688c-8.446-3.955-23.665-6.905-24.714-9.719
	c-0.677-1.809-0.694-1.944-0.832-3.193c-0.153-1.38,1.388-6.109-3.887-14.995c-5.277-8.886-17.494-9.534-17.494-9.534
	s-12.22,0.648-17.494,9.534c-5.276,8.886-3.735,13.615-3.888,14.995c-0.14,1.249-0.157,1.384-0.834,3.193
	c-1.05,2.814-16.267,5.765-24.713,9.719c-7.62,3.569-20.547,10.414-20.27,20.688s8.064,11.604,11.383,12.218
	c10.282,1.901,16.257,0.729,17.739,1.583c3.063,1.763,1.145,3.067,0.294,5.278c-1.018,2.643-9.462,18.854-13.312,24.796
	c-6.387,9.855-11.153,25.129-11.153,27.629c0,2.498,0.185,5.044,1.527,5.368c2.306,0.556,38.504,0.602,40.17,0.322
	C200.432,208.098,215.981,181.996,219.314,181.72"/>
<path fill="#FFE1D6" stroke="#FFE1D6" stroke-width="3" d="M87.755,181.719c3.332,0.276,18.881,26.379,20.546,26.655
	c1.667,0.278,37.866,0.233,40.171-0.322c1.342-0.324,1.527-2.871,1.527-5.371c0-2.497-4.768-17.771-11.154-27.627
	c-3.848-5.941-12.293-22.152-13.311-24.795c-0.85-2.21-2.769-3.515,0.293-5.278c1.482-0.854,7.456,0.318,17.738-1.583
	c3.321-0.614,11.108-1.944,11.385-12.217c0.278-10.275-12.65-17.12-20.271-20.688c-8.447-3.954-23.662-6.904-24.713-9.718
	c-0.674-1.81-0.693-1.945-0.833-3.193c-0.153-1.38,1.388-6.109-3.888-14.995c-5.276-8.886-17.492-9.533-17.492-9.533
	s-12.219,0.647-17.495,9.533c-5.275,8.886-3.734,13.614-3.887,14.995c-0.139,1.249-0.157,1.384-0.833,3.193
	c-1.05,2.813-16.267,5.764-24.713,9.718c-7.621,3.569-20.549,10.414-20.271,20.688c0.278,10.273,8.064,11.604,11.385,12.217
	c10.283,1.901,16.256,0.729,17.739,1.583c3.063,1.763,1.143,3.068,0.293,5.278c-1.017,2.642-9.462,18.854-13.312,24.795
	c-6.386,9.855-11.152,25.13-11.152,27.627c0,2.499,0.184,5.046,1.526,5.371c2.307,0.556,38.505,0.601,40.171,0.322
	C68.873,208.098,84.423,181.995,87.755,181.719"/>
<path fill="#FFE1D6" stroke="#FFC3AD" stroke-width="4" d="M154.09,207.271c3.801-0.317,21.537,30.087,23.436,30.406
	c1.902,0.316,43.188,0.263,45.82-0.371c1.528-0.369,1.74-3.273,1.74-6.123c0-2.852-5.437-20.269-12.722-31.514
	c-4.391-6.777-14.022-25.266-15.183-28.279c-0.97-2.521-3.159-4.008,0.335-6.02c1.689-0.976,8.505,0.363,20.23-1.808
	c3.787-0.699,12.669-2.215,12.987-13.933c0.315-11.718-14.43-19.525-23.121-23.595c-9.635-4.509-26.99-7.875-28.188-11.086
	c-0.771-2.063-0.792-2.216-0.95-3.64c-0.176-1.574,1.585-6.969-4.435-17.104c-6.017-10.134-19.953-10.874-19.953-10.874
	s-13.934,0.74-19.953,10.874c-6.017,10.134-4.259,15.529-4.434,17.104c-0.158,1.423-0.18,1.576-0.951,3.64
	c-1.197,3.211-18.552,6.577-28.187,11.086c-8.691,4.07-23.436,11.876-23.119,23.595s9.197,13.234,12.984,13.933
	c11.727,2.171,18.542,0.832,20.233,1.808c3.492,2.012,1.303,3.498,0.334,6.02c-1.16,3.014-10.794,21.502-15.182,28.279
	c-7.284,11.245-12.722,28.662-12.722,31.514c0,2.85,0.211,5.754,1.743,6.123c2.631,0.634,43.916,0.688,45.816,0.371
	C132.554,237.358,150.29,207.588,154.09,207.271z"/>
</svg>
